<svg width="40" height="40" viewBox="0 0 40 40" fill="none" xmlns="http://www.w3.org/2000/svg">
<g clip-path="url(#clip0_2_177)">
<path d="M21.0742 39.6343C19.9486 39.6338 18.8249 39.5421 17.7142 39.36C12.2812 38.4684 7.42427 35.457 4.21002 30.987C0.99577 26.5171 -0.312933 20.9541 0.571342 15.52C1.06617 12.4264 2.25874 9.48608 4.05866 6.92183C5.85858 4.35758 8.21863 2.23672 10.9599 0.720002C11.4224 0.461591 11.9494 0.34145 12.4782 0.373866C13.007 0.406282 13.5153 0.589892 13.9428 0.902859C14.3797 1.20181 14.7203 1.6213 14.9232 2.11028C15.1261 2.59927 15.1825 3.13668 15.0856 3.65714L13.5999 3.54286L15.0056 3.79429C14.2125 8.00112 14.9537 12.3529 17.0945 16.0601C19.2354 19.7672 22.6341 22.5843 26.6742 24C29.7855 25.0798 33.1326 25.2892 36.3542 24.6057C36.864 24.5057 37.3915 24.55 37.8775 24.7337C38.3634 24.9175 38.7883 25.2333 39.1044 25.6456C39.4204 26.0579 39.615 26.5502 39.6662 27.0672C39.7174 27.5842 39.6232 28.1051 39.3942 28.5714C37.6316 31.904 34.9954 34.6942 31.7681 36.643C28.5409 38.5919 24.8442 39.6259 21.0742 39.6343ZM12.1942 3.30286C10.0082 4.54234 8.10761 6.22798 6.61586 8.2502C5.12411 10.2724 4.07464 12.586 3.53568 15.0404C2.99672 17.4948 2.98033 20.0352 3.48759 22.4964C3.99484 24.9575 5.01438 27.2844 6.47991 29.3257C8.24631 31.7949 10.6118 33.7741 13.3538 35.0772C16.0959 36.3803 19.1243 36.9645 22.1543 36.7748C25.1843 36.585 28.1163 35.6276 30.6743 33.9926C33.2324 32.3576 35.3325 30.0988 36.7771 27.4286C33.1011 28.1675 29.2947 27.9151 25.7485 26.6971C21.0694 25.0565 17.1313 21.7966 14.6455 17.5063C12.1598 13.216 11.2903 8.17817 12.1942 3.30286Z" fill="#545775"/>
</g>
<defs>
<clipPath id="clip0_2_177">
<rect width="40" height="40" fill="white"/>
</clipPath>
</defs>
</svg>
