<svg width="40" height="40" viewBox="0 0 40 40" fill="none" xmlns="http://www.w3.org/2000/svg">
<path d="M18.8672 2.04102C18.5086 2.04102 18.2227 2.32698 18.2227 2.68555V5.87891C15.6255 6.20279 13.2465 7.23249 11.2793 8.75977L9.01367 6.49414C8.76012 6.24059 8.35902 6.24059 8.10547 6.49414L6.49414 8.10547C6.24059 8.35902 6.24059 8.76012 6.49414 9.01367L8.75977 11.2793C7.23249 13.2465 6.20279 15.6255 5.87891 18.2227H2.68555C2.32698 18.2227 2.04102 18.5086 2.04102 18.8672V21.1328C2.04102 21.4914 2.32698 21.7773 2.68555 21.7773H5.87891C6.20305 24.3766 7.2294 26.7515 8.75977 28.7207L6.49414 30.9863C6.24059 31.2399 6.24059 31.641 6.49414 31.8945L8.10547 33.5059C8.35902 33.7594 8.76012 33.7594 9.01367 33.5059L11.2793 31.2402C13.2485 32.7706 15.6234 33.7969 18.2227 34.1211V37.3145C18.2227 37.673 18.5086 37.959 18.8672 37.959H21.1328C21.4914 37.959 21.7773 37.673 21.7773 37.3145V34.1211C24.3745 33.7972 26.7535 32.7675 28.7207 31.2402L30.9863 33.5059C31.2399 33.7594 31.641 33.7594 31.8945 33.5059L33.5059 31.8945C33.7594 31.641 33.7594 31.2399 33.5059 30.9863L31.2402 28.7207C32.7675 26.7535 33.7972 24.3745 34.1211 21.7773H37.3145C37.673 21.7773 37.959 21.4914 37.959 21.1328V18.8672C37.959 18.5086 37.673 18.2227 37.3145 18.2227H34.1211C33.7969 15.6234 32.7706 13.2485 31.2402 11.2793L33.5059 9.01367C33.7594 8.76012 33.7594 8.35902 33.5059 8.10547L31.8945 6.49414C31.641 6.24059 31.2399 6.24059 30.9863 6.49414L28.7207 8.75977C26.7515 7.2294 24.3766 6.20305 21.7773 5.87891V2.68555C21.7773 2.32698 21.4914 2.04102 21.1328 2.04102H18.8672Z" fill="#DBCFB0"/>
</svg>
