<svg width="100" height="100" viewBox="0 0 100 100" fill="none" xmlns="http://www.w3.org/2000/svg">
<path d="M47.168 5.10254C46.2715 5.10254 45.5566 5.81744 45.5566 6.71387V14.6973C39.0637 15.507 33.1164 18.0812 28.1982 21.8994L22.5342 16.2354C21.9003 15.6015 20.8975 15.6015 20.2637 16.2354L16.2354 20.2637C15.6015 20.8975 15.6015 21.9003 16.2354 22.5342L21.8994 28.1982C18.0812 33.1164 15.507 39.0637 14.6973 45.5566H6.71387C5.81744 45.5566 5.10254 46.2715 5.10254 47.168V52.832C5.10254 53.7285 5.81744 54.4434 6.71387 54.4434H14.6973C15.5076 60.9415 18.0735 66.8787 21.8994 71.8018L16.2354 77.4658C15.6015 78.0997 15.6015 79.1025 16.2354 79.7363L20.2637 83.7646C20.8975 84.3985 21.9003 84.3985 22.5342 83.7646L28.1982 78.1006C33.1213 81.9265 39.0585 84.4924 45.5566 85.3027V93.2861C45.5566 94.1826 46.2715 94.8975 47.168 94.8975H52.832C53.7285 94.8975 54.4434 94.1826 54.4434 93.2861V85.3027C60.9363 84.493 66.8836 81.9188 71.8018 78.1006L77.4658 83.7646C78.0997 84.3985 79.1025 84.3985 79.7363 83.7646L83.7646 79.7363C84.3985 79.1025 84.3985 78.0997 83.7646 77.4658L78.1006 71.8018C81.9188 66.8836 84.493 60.9363 85.3027 54.4434H93.2861C94.1826 54.4434 94.8975 53.7285 94.8975 52.832V47.168C94.8975 46.2715 94.1826 45.5566 93.2861 45.5566H85.3027C84.4924 39.0585 81.9265 33.1213 78.1006 28.1982L83.7646 22.5342C84.3985 21.9003 84.3985 20.8975 83.7646 20.2637L79.7363 16.2354C79.1025 15.6015 78.0997 15.6015 77.4658 16.2354L71.8018 21.8994C66.8787 18.0735 60.9415 15.5076 54.4434 14.6973V6.71387C54.4434 5.81744 53.7285 5.10254 52.832 5.10254H47.168Z" fill="#8D0B0B"/>
</svg>
