<svg width="40" height="40" viewBox="0 0 40 40" fill="none" xmlns="http://www.w3.org/2000/svg">
<g clip-path="url(#clip0_2_181)">
<path d="M20 29.5771C18.1058 29.5771 16.2542 29.0155 14.6792 27.9631C13.1043 26.9108 11.8767 25.415 11.1519 23.665C10.427 21.915 10.2373 19.9894 10.6069 18.1316C10.9764 16.2738 11.8885 14.5673 13.2279 13.2279C14.5673 11.8885 16.2738 10.9764 18.1316 10.6069C19.9894 10.2373 21.915 10.427 23.665 11.1519C25.415 11.8767 26.9108 13.1043 27.9631 14.6792C29.0155 16.2542 29.5771 18.1058 29.5771 20C29.5744 22.5392 28.5645 24.9736 26.7691 26.7691C24.9736 28.5645 22.5392 29.5744 20 29.5771ZM20 13.28C18.6709 13.28 17.3717 13.6741 16.2666 14.4125C15.1615 15.1509 14.3002 16.2004 13.7915 17.4284C13.2829 18.6563 13.1498 20.0075 13.4091 21.311C13.6684 22.6146 14.3084 23.8119 15.2482 24.7518C16.188 25.6916 17.3854 26.3316 18.689 26.5909C19.9925 26.8502 21.3437 26.7171 22.5716 26.2085C23.7996 25.6998 24.8491 24.8385 25.5875 23.7334C26.3259 22.6283 26.72 21.3291 26.72 20C26.7179 18.2184 26.0092 16.5104 24.7494 15.2506C23.4896 13.9908 21.7816 13.2821 20 13.28Z" fill="#DBCFB0"/>
<path d="M20 6.25257H19.9611C19.5823 6.2421 19.2231 6.08166 18.9626 5.8065C18.702 5.53134 18.5613 5.16398 18.5714 4.78514L18.6572 1.67543C18.6723 1.2982 18.8342 0.941814 19.1083 0.682217C19.3824 0.42262 19.7471 0.280345 20.1246 0.285715C20.5032 0.296479 20.8621 0.457052 21.1224 0.732179C21.3828 1.00731 21.5233 1.3745 21.5131 1.75314L21.4274 4.86286C21.4176 5.23486 21.2629 5.58832 20.9962 5.84791C20.7296 6.1075 20.3721 6.2527 20 6.25257Z" fill="#DBCFB0"/>
<path d="M30.7349 10.7017C30.449 10.7017 30.1696 10.6159 29.933 10.4554C29.6964 10.2949 29.5134 10.0671 29.4077 9.80147C29.3019 9.53584 29.2783 9.24459 29.3399 8.9654C29.4015 8.68621 29.5455 8.43192 29.7532 8.23543L32.0137 6.09714C32.2897 5.84119 32.6556 5.70452 33.0318 5.71683C33.408 5.72914 33.7642 5.88943 34.0229 6.16287C34.2816 6.43632 34.4219 6.80081 34.4133 7.17712C34.4047 7.55344 34.248 7.91118 33.9772 8.17257L31.7166 10.3109C31.4518 10.5626 31.1002 10.7026 30.7349 10.7017Z" fill="#DBCFB0"/>
<path d="M38.2857 21.528H38.2445L35.1337 21.44C34.9463 21.4347 34.7618 21.3925 34.5907 21.3159C34.4197 21.2392 34.2654 21.1297 34.1366 20.9934C34.0079 20.8571 33.9073 20.6968 33.8405 20.5217C33.7737 20.3465 33.7421 20.1599 33.7474 19.9726C33.7466 19.7832 33.7846 19.5957 33.8592 19.4216C33.9338 19.2475 34.0433 19.0906 34.1809 18.9605C34.3186 18.8305 34.4815 18.73 34.6595 18.6655C34.8376 18.6009 35.0269 18.5736 35.216 18.5851L38.3257 18.6731C38.7046 18.6784 39.0658 18.834 39.33 19.1057C39.5941 19.3774 39.7396 19.7428 39.7343 20.1217C39.729 20.5006 39.5734 20.8618 39.3017 21.126C39.03 21.3902 38.6646 21.5356 38.2857 21.5303V21.528Z" fill="#DBCFB0"/>
<path d="M32.8548 34.4343C32.6603 34.4344 32.4677 34.3947 32.2891 34.3177C32.1104 34.2406 31.9494 34.1279 31.816 33.9863L29.68 31.7246C29.5493 31.5886 29.4469 31.428 29.3786 31.2522C29.3103 31.0765 29.2775 30.8889 29.282 30.7004C29.2866 30.5118 29.3284 30.3261 29.4052 30.1538C29.4819 29.9815 29.5919 29.8261 29.729 29.6966C29.8661 29.567 30.0274 29.4659 30.2038 29.3991C30.3801 29.3322 30.568 29.301 30.7565 29.3071C30.945 29.3132 31.1304 29.3565 31.302 29.4347C31.4737 29.5128 31.6281 29.6241 31.7565 29.7623L33.8925 32.0251C34.0845 32.2278 34.2129 32.4823 34.2617 32.7572C34.3106 33.032 34.2777 33.3152 34.1673 33.5715C34.0568 33.8279 33.8737 34.0463 33.6404 34.1997C33.4071 34.353 33.134 34.4346 32.8548 34.4343Z" fill="#DBCFB0"/>
<path d="M19.8857 39.7143H19.8434C19.656 39.709 19.4714 39.6667 19.3002 39.59C19.1291 39.5133 18.9747 39.4037 18.846 39.2673C18.7172 39.1309 18.6166 38.9705 18.5499 38.7952C18.4832 38.6199 18.4517 38.4332 18.4572 38.2457L18.5474 35.136C18.5584 34.7571 18.7193 34.3981 18.995 34.1379C19.2706 33.8777 19.6383 33.7377 20.0172 33.7486C20.396 33.7595 20.7551 33.9205 21.0153 34.1961C21.2754 34.4717 21.4155 34.8394 21.4046 35.2183L21.3143 38.328C21.3036 38.6996 21.1483 39.0524 20.8815 39.3113C20.6147 39.5701 20.2575 39.7147 19.8857 39.7143Z" fill="#DBCFB0"/>
<path d="M6.98516 34.2731C6.69895 34.2735 6.41924 34.1878 6.18235 34.0271C5.94546 33.8665 5.76233 33.6384 5.65673 33.3724C5.55113 33.1063 5.52795 32.8147 5.59018 32.5353C5.65242 32.256 5.7972 32.0018 6.00573 31.8057L8.26859 29.672C8.40397 29.538 8.56479 29.4324 8.74159 29.3614C8.91839 29.2904 9.10759 29.2555 9.29807 29.2588C9.48856 29.262 9.67646 29.3034 9.85074 29.3803C10.025 29.4573 10.1821 29.5683 10.3129 29.7069C10.4436 29.8455 10.5453 30.0088 10.6119 30.1872C10.6786 30.3657 10.7089 30.5557 10.7011 30.746C10.6932 30.9364 10.6474 31.1232 10.5662 31.2956C10.4851 31.468 10.3703 31.6224 10.2286 31.7497L7.96459 33.8834C7.70024 34.1342 7.34956 34.2738 6.98516 34.2731Z" fill="#DBCFB0"/>
<path d="M4.82404 21.3943H4.78176L1.67204 21.3017C1.48451 21.2961 1.29993 21.2536 1.12882 21.1766C0.957718 21.0997 0.80345 20.9898 0.674825 20.8532C0.546201 20.7166 0.44574 20.556 0.37918 20.3806C0.312619 20.2052 0.281262 20.0184 0.2869 19.8309C0.290552 19.6428 0.331689 19.4574 0.407901 19.2855C0.484113 19.1135 0.593869 18.9585 0.730739 18.8295C0.86761 18.7005 1.02884 18.6001 1.205 18.5342C1.38115 18.4683 1.56869 18.4382 1.75661 18.4457L4.86633 18.5383C5.24521 18.5439 5.60635 18.6998 5.87029 18.9717C6.13423 19.2435 6.27937 19.6091 6.27376 19.988C6.26815 20.3669 6.11226 20.728 5.84039 20.992C5.56851 21.2559 5.20292 21.401 4.82404 21.3954V21.3943Z" fill="#DBCFB0"/>
<path d="M9.29715 10.6686C9.10232 10.6687 8.90952 10.6289 8.73065 10.5517C8.55178 10.4744 8.39063 10.3614 8.25715 10.2194L6.12458 7.95543C5.99589 7.81886 5.89535 7.65827 5.82872 7.48285C5.76208 7.30742 5.73065 7.12058 5.73623 6.93301C5.74748 6.55418 5.90876 6.19535 6.18458 5.93543C6.46041 5.67552 6.82818 5.53583 7.20701 5.54708C7.58583 5.55833 7.94467 5.71961 8.20458 5.99543L10.3383 8.26058C10.529 8.46387 10.6562 8.7185 10.7041 8.99312C10.752 9.26774 10.7186 9.55038 10.608 9.80626C10.4974 10.0621 10.3143 10.2801 10.0814 10.4333C9.84853 10.5865 9.57593 10.6683 9.29715 10.6686Z" fill="#DBCFB0"/>
</g>
<defs>
<clipPath id="clip0_2_181">
<rect width="40" height="40" fill="white"/>
</clipPath>
</defs>
</svg>
